<svg xmlns="http://www.w3.org/2000/svg" viewBox="0 0 410.1 169.4"><defs><style>.a{fill:#1c75bc;}.b{fill:#cfd8ee;}.c{fill:#7d9fd3;}.d{fill:#032540;}.e{fill:#231f20;}.f{fill:#14588d;}.g{fill:#fff;}</style></defs><polygon class="a" points="400 20 390 20 390 10 20 10 20 20 10.1 20 10.2 99.6 20.1 99.6 20.1 109.6 390.1 109.6 390.1 99.6 400.1 99.6 400 20"/><rect class="b" x="20" y="109.4" width="10" height="10"/><polygon class="b" points="50 109.4 40 109.4 40 119.4 50 119.4 60 119.4 60 109.4 50 109.4"/><rect class="c" x="10" y="99.4" width="10" height="10"/><rect class="c" x="30" y="109.4" width="10" height="10"/><polygon class="c" points="29.9 10 19.9 10 19.9 20 10 20 10 30 20 30 20 20 29.9 20 39.9 20 49.9 20 49.9 10 39.9 10 29.9 10"/><polygon class="c" points="400 30 400 20 390.1 20 390.1 10 380.1 10 370.1 10 360.1 10 360.1 20 370.1 20 380.1 20 390 20 390 30 400 30"/><polygon class="c" points="370 109.4 360 109.4 350 109.4 340 109.4 330 109.4 320 109.4 310 109.4 300 109.4 290 109.4 280 109.4 270 109.4 260 109.4 250 109.4 240 109.4 230 109.4 220 109.4 210 109.4 200 109.4 190 109.4 180 109.4 170 109.4 160 109.4 150 109.4 140 109.4 130 109.4 120 109.4 110 109.4 100 109.4 90 109.4 80 109.4 70 109.4 60 109.4 60 119.4 70 119.4 80 119.4 90 119.4 100 119.4 110 119.4 120 119.4 130 119.4 140 119.4 150 119.4 160 119.4 170 119.4 180 119.4 190 119.4 200 119.4 210 119.4 220 119.4 230 119.4 240 119.4 250 119.4 260 119.4 270 119.4 280 119.4 290 119.4 300 119.4 310 119.4 320 119.4 330 119.4 340 119.4 350 119.4 360 119.4 370 119.4 380 119.4 390 119.4 390 109.4 380 109.4 370 109.4"/><rect class="c" x="390" y="99.4" width="10" height="10"/><polygon class="d" points="390 139.4 390 149.4 380 149.4 370 149.4 360 149.4 350 149.4 340 149.4 330 149.4 320 149.4 310 149.4 300 149.4 290 149.4 280 149.4 270 149.4 260 149.4 250 149.4 240 149.4 230 149.4 220 149.4 210 149.4 200 149.4 190 149.4 180 149.4 170 149.4 160 149.4 150 149.4 140 149.4 130 149.4 120 149.4 110 149.4 100 149.4 90 149.4 80 149.4 70 149.4 60 149.4 50 149.4 40 149.4 30 149.4 20.1 149.4 20.1 139.4 10.1 139.4 10.1 149.4 20 149.4 20 159.4 30 159.4 40 159.4 50 159.4 60 159.4 70 159.4 80 159.4 90 159.4 100 159.4 110 159.4 120 159.4 130 159.4 140 159.4 150 159.4 160 159.4 170 159.4 180 159.4 190 159.4 200 159.4 210 159.4 220 159.4 230 159.4 240 159.4 250 159.4 260 159.4 270 159.4 280 159.4 290 159.4 300 159.4 310 159.4 320 159.4 330 159.4 340 159.4 350 159.4 360 159.4 370 159.4 380 159.4 390 159.4 390 149.4 400 149.4 400 139.4 390 139.4"/><polygon class="e" points="20.1 10 30 10 40 10 50 10 60 10 70 10 80 10 90 10 100 10 110 10 120 10 130 10 140 10 150 10 160 10 170 10 180 10 190 10 200 10 210 10 220 10 230 10 240 10 250 10 260 10 270 10 280 10 290 10 300 10 310 10 320 10 330 10 340 10 350 10 360 10 370 10 380 10 390 10 390 0 380 0 370 0 360 0 350 0 340 0 330 0 320 0 310 0 300 0 290 0 280 0 270 0 260 0 250 0 240 0 230 0 220 0 210 0 200 0 190 0 180 0 170 0 160 0 150 0 140 0 130 0 120 0 110 0 100 0 90 0 80 0 70 0 60 0 50 0 40 0 30 0 20 0 20 10 10.1 10 10.1 20 20.1 20 20.1 10"/><rect class="e" x="390.1" y="10" width="10" height="10"/><polygon class="e" points="400.1 20 400.1 30 400.1 40 400.1 50 400.1 60 400.1 69.8 400.1 70 400.1 79.6 400.1 79.8 400.1 89.6 400 89.6 400 99.6 400 99.6 400 109.4 390 109.4 390 119.4 400 119.4 400 129.4 400 129.4 400 139.4 400 139.4 400 149.4 410 149.4 410 139.4 410 139.4 410 129.4 410 129.4 410 119.4 410 119.4 410 109.4 410 109.4 410 99.4 410 99.4 410 89.6 410.1 89.6 410.1 79.8 410.1 79.6 410.1 70 410.1 69.8 410.1 60 410.1 50 410.1 40 410.1 30 410.1 20 400.1 20"/><rect class="e" x="10" y="149.4" width="10" height="10"/><polygon class="e" points="370 159.4 360 159.4 350 159.4 340 159.4 330 159.4 320 159.4 310 159.4 300 159.4 290 159.4 280 159.4 270 159.4 260 159.4 250 159.4 240 159.4 230 159.4 220 159.4 210 159.4 200 159.4 190 159.4 180 159.4 170 159.4 160 159.4 150 159.4 140 159.4 130 159.4 120 159.4 110 159.4 100 159.4 90 159.4 80 159.4 70 159.4 60 159.4 50 159.4 40 159.4 30 159.4 20 159.4 20 169.4 30 169.4 40 169.4 50 169.4 60 169.4 70 169.4 80 169.4 90 169.4 100 169.4 110 169.4 120 169.4 130 169.4 140 169.4 150 169.4 160 169.4 170 169.4 180 169.4 190 169.4 200 169.4 210 169.4 220 169.4 230 169.4 240 169.4 250 169.4 260 169.4 270 169.4 280 169.4 290 169.4 300 169.4 310 169.4 320 169.4 330 169.4 340 169.4 350 169.4 360 169.4 370 169.4 380 169.4 390 169.4 390 159.4 380 159.4 370 159.4"/><rect class="e" x="390" y="149.4" width="10" height="10"/><polygon class="e" points="10.1 139.4 10.1 129.4 10 129.4 10 119.4 10 119.4 20 119.4 20 129.4 30 129.4 40 129.4 50 129.4 60 129.4 70 129.4 80 129.4 90 129.4 100 129.4 110 129.4 120 129.4 130 129.4 140 129.4 150 129.4 160 129.4 170 129.4 180 129.4 190 129.4 200 129.4 210 129.4 220 129.4 230 129.4 240 129.4 250 129.4 260 129.4 270 129.4 280 129.4 290 129.4 300 129.4 310 129.4 320 129.4 330 129.4 340 129.4 350 129.4 360 129.4 370 129.4 380 129.4 390 129.4 390 119.4 380 119.4 370 119.4 360 119.4 350 119.4 340 119.4 330 119.4 320 119.4 310 119.4 300 119.4 290 119.4 280 119.4 270 119.4 260 119.4 250 119.4 240 119.4 230 119.4 220 119.4 210 119.4 200 119.4 190 119.4 180 119.4 170 119.4 160 119.4 150 119.4 140 119.4 130 119.4 120 119.4 110 119.4 100 119.4 90 119.4 80 119.4 70 119.4 60 119.4 50 119.4 40 119.4 30 119.4 20 119.4 20 109.4 10 109.4 10 109.4 10 99.4 10 99.4 10 89.6 10.1 89.6 10.1 79.7 10.1 79.7 10.1 69.7 10.1 69.7 10.1 59.7 10.1 59.7 10.1 49.7 10.1 40 10.1 39.7 10.1 30 10.1 20 0.1 20 0.1 30 0.1 39.7 0.1 40 0.1 49.7 0.1 59.7 0.1 59.7 0.1 69.7 0.1 69.7 0.1 79.6 0.1 79.6 0.1 89.6 0 89.6 0 99.6 0 99.6 0 109.4 0 109.4 0 119.4 0 119.4 0 129.4 0.1 129.4 0.1 139.4 0 139.4 0 149.4 10 149.4 10 139.4 10.1 139.4"/><polygon class="f" points="30.1 30 40.1 30 50.1 30 60.1 30 70.1 30 80.1 30 90.1 30 100.1 30 110.1 30 120.1 30 130.1 30 140.1 30 150.1 30 160.1 30 170.1 30 180.1 30 190.1 30 200.1 30 210.1 30 220.1 30 230.1 30 240.1 30 250.1 30 260.1 30 270.1 30 270.1 30 280.1 30 290.1 30 300.1 30 310.1 30 320.1 30 330.1 30 340 30 340.1 30 350 30 360 30 370 30 380 30 380 40 390 40 390 30 390 20 380 20 370 20 360 20 350 20 340.1 20 340 20 330.1 20 320.1 20 310.1 20 300.1 20 290.1 20 280.1 20 270.1 20 270.1 20 260.1 20 250.1 20 240.1 20 230.1 20 220.1 20 210.1 20 200.1 20 190.1 20 180.1 20 170.1 20 160.1 20 150.1 20 140.1 20 130.1 20 120.1 20 110.1 20 100.1 20 90.1 20 80.1 20 70.1 20 60.1 20 50.1 20 40.1 20 30.1 20 20.1 20 20.1 30 20.1 40 30.1 40 30.1 30"/><polygon class="f" points="390 119.4 390 129.4 389.9 129.4 380 129.4 370 129.4 360 129.4 350 129.4 340 129.4 330 129.4 320 129.4 310 129.4 300 129.4 290 129.4 280 129.4 270 129.4 260 129.4 250 129.4 240 129.4 230 129.4 220 129.4 210 129.4 200 129.4 190 129.4 180 129.4 170 129.4 160 129.4 150 129.4 140 129.4 130 129.4 120 129.4 110 129.4 100 129.4 90 129.4 80 129.4 70 129.4 60 129.4 50 129.4 40 129.4 30 129.4 20 129.4 20 119.4 10 119.4 10 129.4 10 129.4 10 139.4 20 139.4 20 149.4 30 149.4 40 149.4 50 149.4 60 149.4 70 149.4 80 149.4 90 149.4 100 149.4 110 149.4 120 149.4 130 149.4 140 149.4 150 149.4 160 149.4 170 149.4 180 149.4 190 149.4 200 149.4 210 149.4 220 149.4 230 149.4 240 149.4 250 149.4 260 149.4 270 149.4 280 149.4 290 149.4 300 149.4 310 149.4 320 149.4 330 149.4 340 149.4 350 149.4 360 149.4 370 149.4 380 149.4 390 149.4 390 139.4 390 139.4 399.9 139.4 399.9 129.4 400 129.4 400 119.4 390 119.4"/><path class="g" d="M65.1,82.5H93.9v4.8h19.2v33.6h-9.6v-24H93.9v24H84.3V92.1H74.7v28.8H65.1Z" transform="translate(-23.6 -31.5)"/><path class="g" d="M124.6,82.5h9.6v38.4h-9.6Z" transform="translate(-23.6 -31.5)"/><path class="g" d="M146.2,82.5H175v38.4h-9.6V92.1h-9.6v28.8h-9.6Z" transform="translate(-23.6 -31.5)"/><path class="g" d="M185.6,82.5h28.8v9.6h-9.6v28.8h-9.6V92.1h-9.6Z" transform="translate(-23.6 -31.5)"/><path class="g" d="M256.2,82.5H285v38.4h-9.6V92.1h-9.6v28.8h-9.6Z" transform="translate(-23.6 -31.5)"/><path class="g" d="M325.8,120.9H297V82.5h28.8Zm-9.6-9.6V92.1h-9.6v19.2Z" transform="translate(-23.6 -31.5)"/><path class="g" d="M336.5,82.5h9.6v19.2h9.6V87.3h9.6v19.2h9.6v-24h9.6v38.4h-9.6v-4.8H355.7v-4.8H336.5Z" transform="translate(-23.6 -31.5)"/></svg>