<svg xmlns="http://www.w3.org/2000/svg" viewBox="0 0 410.1 99.7"><defs><style>.a{fill:#1c75bc;}.b{fill:#231f20;}.c{font-size:48px;font-family:BulkyPixels, Bulky Pixels;}.c,.i{fill:#fff;}.d{letter-spacing:-0.04em;}.e{letter-spacing:-0.03em;}.f{letter-spacing:-0.06em;}.g{letter-spacing:-0.03em;}.h{letter-spacing:-0.06em;}</style></defs><polygon class="a" points="400 20 390 20 390 10 20 10 20 20 10.1 20 10.1 79.7 20 79.7 20 89.7 390 89.7 390 79.7 400 79.7 400 20"/><rect class="b" y="69.7" width="10" height="10"/><rect class="b" x="400" y="69.7" width="10" height="10"/><rect class="b" y="59.7" width="10" height="10"/><rect class="b" x="400" y="59.7" width="10" height="10"/><rect class="b" x="0.1" y="30" width="10" height="10"/><rect class="b" x="400.1" y="30" width="10" height="10"/><rect class="b" x="0.1" y="20" width="10" height="10"/><rect class="b" x="0.1" y="49.7" width="10" height="10"/><rect class="b" x="0.1" y="39.7" width="10" height="10"/><rect class="b" x="400.1" y="20" width="10" height="10"/><rect class="b" x="400.1" y="50" width="10" height="10"/><rect class="b" x="400.1" y="40" width="10" height="10"/><rect class="b" x="10.1" y="10" width="10" height="10"/><rect class="b" x="20" width="10" height="10"/><rect class="b" x="30" width="10" height="10"/><rect class="b" x="40" width="10" height="10"/><rect class="b" x="50" width="10" height="10"/><rect class="b" x="60" width="10" height="10"/><rect class="b" x="370" width="10" height="10"/><rect class="b" x="380" width="10" height="10"/><rect class="b" x="390.1" y="10" width="10" height="10"/><rect class="b" x="330" width="10" height="10"/><rect class="b" x="340" width="10" height="10"/><rect class="b" x="350" width="10" height="10"/><rect class="b" x="10" y="79.7" width="10" height="10"/><rect class="b" x="19.9" y="89.7" width="10" height="10"/><rect class="b" x="29.9" y="89.7" width="10" height="10"/><rect class="b" x="39.9" y="89.7" width="10" height="10"/><rect class="b" x="49.9" y="89.7" width="10" height="10"/><rect class="b" x="59.9" y="89.7" width="10" height="10"/><rect class="b" x="70" width="10" height="10"/><rect class="b" x="80" width="10" height="10"/><rect class="b" x="90" width="10" height="10"/><rect class="b" x="310" width="10" height="10"/><rect class="b" x="69.9" y="89.7" width="10" height="10"/><rect class="b" x="79.9" y="89.7" width="10" height="10"/><rect class="b" x="89.9" y="89.7" width="10" height="10"/><rect class="b" x="100" width="10" height="10"/><rect class="b" x="110" width="10" height="10"/><rect class="b" x="120" width="10" height="10"/><rect class="b" x="130" width="10" height="10"/><rect class="b" x="140" width="10" height="10"/><rect class="b" x="99.9" y="89.7" width="10" height="10"/><rect class="b" x="109.9" y="89.7" width="10" height="10"/><rect class="b" x="119.9" y="89.7" width="10" height="10"/><rect class="b" x="129.9" y="89.7" width="10" height="10"/><rect class="b" x="139.9" y="89.7" width="10" height="10"/><rect class="b" x="150" width="10" height="10"/><rect class="b" x="160" width="10" height="10"/><rect class="b" x="170" width="10" height="10"/><rect class="b" x="149.9" y="89.7" width="10" height="10"/><rect class="b" x="159.9" y="89.7" width="10" height="10"/><rect class="b" x="169.9" y="89.7" width="10" height="10"/><rect class="b" x="180" width="10" height="10"/><rect class="b" x="190" width="10" height="10"/><rect class="b" x="200" width="10" height="10"/><rect class="b" x="210" width="10" height="10"/><rect class="b" x="220" width="10" height="10"/><rect class="b" x="179.9" y="89.7" width="10" height="10"/><rect class="b" x="189.9" y="89.7" width="10" height="10"/><rect class="b" x="199.9" y="89.7" width="10" height="10"/><rect class="b" x="209.9" y="89.7" width="10" height="10"/><rect class="b" x="219.9" y="89.7" width="10" height="10"/><rect class="b" x="230" width="10" height="10"/><rect class="b" x="240" width="10" height="10"/><rect class="b" x="250" width="10" height="10"/><rect class="b" x="229.9" y="89.7" width="10" height="10"/><rect class="b" x="239.9" y="89.7" width="10" height="10"/><rect class="b" x="249.9" y="89.7" width="10" height="10"/><rect class="b" x="260" width="10" height="10"/><rect class="b" x="270" width="10" height="10"/><rect class="b" x="280" width="10" height="10"/><rect class="b" x="259.9" y="89.7" width="10" height="10"/><rect class="b" x="269.9" y="89.7" width="10" height="10"/><rect class="b" x="279.9" y="89.7" width="10" height="10"/><rect class="b" x="290" width="10" height="10"/><rect class="b" x="300" width="10" height="10"/><rect class="b" x="289.9" y="89.7" width="10" height="10"/><rect class="b" x="299.9" y="89.7" width="10" height="10"/><rect class="b" x="309.9" y="89.7" width="10" height="10"/><rect class="b" x="320" width="10" height="10"/><rect class="b" x="319.9" y="89.7" width="10" height="10"/><rect class="b" x="369.9" y="89.7" width="10" height="10"/><rect class="b" x="379.9" y="89.7" width="10" height="10"/><rect class="b" x="390" y="79.7" width="10" height="10"/><rect class="b" x="329.9" y="89.7" width="10" height="10"/><rect class="b" x="339.9" y="89.7" width="10" height="10"/><rect class="b" x="349.9" y="89.7" width="10" height="10"/><rect class="b" x="360" width="10" height="10"/><rect class="b" x="359.9" y="89.7" width="10" height="10"/><text class="c" transform="translate(38.5 67.6)"><tspan class="d">M</tspan><tspan class="e" x="59.5" y="0">I</tspan><tspan class="f" x="81.1" y="0">N</tspan><tspan x="120.5" y="0">T </tspan><tspan class="g" x="191.1" y="0">N</tspan><tspan class="h" x="231.9" y="0">O</tspan><tspan x="271.4" y="0">W</tspan></text><polygon class="a" points="400 20 390 20 390 10 20 10 20 20 10.1 20 10.1 79.7 20 79.7 20 89.7 390 89.7 390 79.7 400 79.7 400 20"/><polygon class="b" points="10 59.7 10.1 59.7 10.1 49.7 10.1 40 10.1 39.7 10.1 30 10.1 20 0.1 20 0.1 30 0.1 39.7 0.1 40 0.1 49.7 0.1 59.7 0 59.7 0 69.7 0 79.7 10 79.7 10 69.7 10 59.7"/><polygon class="b" points="400.1 20 400.1 30 400.1 40 400.1 50 400.1 59.7 400 59.7 400 69.7 400 79.7 410 79.7 410 69.7 410 60 410.1 60 410.1 50 410.1 40 410.1 30 410.1 20 400.1 20"/><polygon class="b" points="20.1 10 30 10 40 10 50 10 60 10 70 10 80 10 90 10 100 10 110 10 120 10 130 10 140 10 150 10 160 10 170 10 180 10 190 10 200 10 210 10 220 10 230 10 240 10 250 10 260 10 270 10 280 10 290 10 300 10 310 10 320 10 330 10 340 10 350 10 360 10 370 10 380 10 390 10 390 0 380 0 370 0 360 0 350 0 340 0 330 0 320 0 310 0 300 0 290 0 280 0 270 0 260 0 250 0 240 0 230 0 220 0 210 0 200 0 190 0 180 0 170 0 160 0 150 0 140 0 130 0 120 0 110 0 100 0 90 0 80 0 70 0 60 0 50 0 40 0 30 0 20 0 20 10 10.1 10 10.1 20 20.1 20 20.1 10"/><rect class="b" x="390.1" y="10" width="10" height="10"/><polygon class="b" points="369.9 89.7 359.9 89.7 349.9 89.7 339.9 89.7 329.9 89.7 319.9 89.7 309.9 89.7 299.9 89.7 289.9 89.7 279.9 89.7 269.9 89.7 259.9 89.7 249.9 89.7 239.9 89.7 229.9 89.7 219.9 89.7 209.9 89.7 199.9 89.7 189.9 89.7 179.9 89.7 169.9 89.7 159.9 89.7 149.9 89.7 139.9 89.7 129.9 89.7 119.9 89.7 109.9 89.7 99.9 89.7 89.9 89.7 79.9 89.7 69.9 89.7 59.9 89.7 49.9 89.7 39.9 89.7 29.9 89.7 20 89.7 20 79.7 10 79.7 10 89.7 19.9 89.7 19.9 99.7 29.9 99.7 39.9 99.7 49.9 99.7 59.9 99.7 69.9 99.7 79.9 99.7 89.9 99.7 99.9 99.7 109.9 99.7 119.9 99.7 129.9 99.7 139.9 99.7 149.9 99.7 159.9 99.7 169.9 99.7 179.9 99.7 189.9 99.7 199.9 99.7 209.9 99.7 219.9 99.7 229.9 99.7 239.9 99.7 249.9 99.7 259.9 99.7 269.9 99.7 279.9 99.7 289.9 99.7 299.9 99.7 309.9 99.7 319.9 99.7 329.9 99.7 339.9 99.7 349.9 99.7 359.9 99.7 369.9 99.7 379.9 99.7 389.9 99.7 389.9 89.7 379.9 89.7 369.9 89.7"/><rect class="b" x="390" y="79.7" width="10" height="10"/><path class="i" d="M62.3,60.7H91.1v4.8h19.2V99.1h-9.6v-24H91.1v24H81.5V70.3H71.9V99.1H62.3Z" transform="translate(-23.7 -31.5)"/><path class="i" d="M121.7,60.7h9.6V99.1h-9.6Z" transform="translate(-23.7 -31.5)"/><path class="i" d="M143.3,60.7h28.8V99.1h-9.6V70.3h-9.6V99.1h-9.6Z" transform="translate(-23.7 -31.5)"/><path class="i" d="M182.7,60.7h28.8v9.6h-9.6V99.1h-9.6V70.3h-9.6Z" transform="translate(-23.7 -31.5)"/><path class="i" d="M253.4,60.7h28.8V99.1h-9.6V70.3H263V99.1h-9.6Z" transform="translate(-23.7 -31.5)"/><path class="i" d="M323,99.1H294.2V60.7H323Zm-9.6-9.6V70.3h-9.6V89.5Z" transform="translate(-23.7 -31.5)"/><path class="i" d="M333.6,60.7h9.6V79.9h9.6V65.5h9.6V84.7H372v-24h9.6V99.1H372V94.3H352.8V89.5H333.6Z" transform="translate(-23.7 -31.5)"/></svg>