<svg xmlns="http://www.w3.org/2000/svg" viewBox="0 0 1460 59.9"><defs><style>.a{fill:#231f20;}.b{fill:#939598;}</style></defs><rect class="a" y="19.8" width="10" height="10"/><rect class="a" x="10" y="9.7" width="10" height="10"/><rect class="a" x="10" y="39.9" width="10" height="10"/><rect class="a" y="29.8" width="10" height="10"/><rect class="b" x="10" y="19.8" width="10" height="10"/><rect class="b" x="10" y="29.5" width="10" height="10"/><rect class="b" x="30" y="9.4" width="10" height="10"/><rect class="b" x="30" y="19.4" width="10" height="10"/><rect class="b" x="30" y="29.4" width="10" height="10"/><rect class="b" x="30" y="39.3" width="10" height="10"/><rect class="b" x="20" y="10" width="10" height="10"/><rect class="b" x="20" y="20" width="10" height="10"/><rect class="b" x="20" y="30" width="10" height="10"/><rect class="b" x="20" y="39.9" width="10" height="10"/><rect class="a" x="20" width="10" height="10"/><rect class="a" x="30" width="10" height="10"/><rect class="a" x="40" width="10" height="10"/><rect class="a" x="50" width="10" height="10"/><rect class="a" x="60" width="10" height="10"/><rect class="a" x="370" width="10" height="10"/><rect class="a" x="380" width="10" height="10"/><rect class="a" x="330" width="10" height="10"/><rect class="a" x="340" width="10" height="10"/><rect class="a" x="350" width="10" height="10"/><rect class="a" x="70" width="10" height="10"/><rect class="a" x="80" width="10" height="10"/><rect class="a" x="90" width="10" height="10"/><rect class="a" x="310" width="10" height="10"/><rect class="a" x="100" width="10" height="10"/><rect class="a" x="110" width="10" height="10"/><rect class="a" x="120" width="10" height="10"/><rect class="a" x="130" width="10" height="10"/><rect class="a" x="140" width="10" height="10"/><rect class="a" x="150" width="10" height="10"/><rect class="a" x="160" width="10" height="10"/><rect class="a" x="170" width="10" height="10"/><rect class="a" x="180" width="10" height="10"/><rect class="a" x="190" width="10" height="10"/><rect class="a" x="200" width="10" height="10"/><rect class="a" x="210" width="10" height="10"/><rect class="a" x="220" width="10" height="10"/><rect class="a" x="230" width="10" height="10"/><rect class="a" x="240" width="10" height="10"/><rect class="a" x="250" width="10" height="10"/><rect class="a" x="260" width="10" height="10"/><rect class="a" x="270" width="10" height="10"/><rect class="a" x="280" width="10" height="10"/><rect class="a" x="290" width="10" height="10"/><rect class="a" x="300" width="10" height="10"/><rect class="a" x="320" width="10" height="10"/><rect class="a" x="360" width="10" height="10"/><rect class="a" x="390" width="10" height="10"/><rect class="a" x="400" width="10" height="10"/><rect class="a" x="410" width="10" height="10"/><rect class="a" x="420" width="10" height="10"/><rect class="a" x="430" width="10" height="10"/><rect class="a" x="740" width="10" height="10"/><rect class="a" x="750" width="10" height="10"/><rect class="a" x="700" width="10" height="10"/><rect class="a" x="710" width="10" height="10"/><rect class="a" x="720" width="10" height="10"/><rect class="a" x="440" width="10" height="10"/><rect class="a" x="450" width="10" height="10"/><rect class="a" x="460" width="10" height="10"/><rect class="a" x="680" width="10" height="10"/><rect class="a" x="470" width="10" height="10"/><rect class="a" x="480" width="10" height="10"/><rect class="a" x="490" width="10" height="10"/><rect class="a" x="500" width="10" height="10"/><rect class="a" x="510" width="10" height="10"/><rect class="a" x="520" width="10" height="10"/><rect class="a" x="530" width="10" height="10"/><rect class="a" x="540" width="10" height="10"/><rect class="a" x="550" width="10" height="10"/><rect class="a" x="560" width="10" height="10"/><rect class="a" x="570" width="10" height="10"/><rect class="a" x="580" width="10" height="10"/><rect class="a" x="590" width="10" height="10"/><rect class="a" x="600" width="10" height="10"/><rect class="a" x="610" width="10" height="10"/><rect class="a" x="620" width="10" height="10"/><rect class="a" x="630" width="10" height="10"/><rect class="a" x="640" width="10" height="10"/><rect class="a" x="650" width="10" height="10"/><rect class="a" x="660" width="10" height="10"/><rect class="a" x="670" width="10" height="10"/><rect class="a" x="690" width="10" height="10"/><rect class="a" x="730" width="10" height="10"/><rect class="a" x="840" width="10" height="10"/><rect class="a" x="850" width="10" height="10"/><rect class="a" x="800" width="10" height="10"/><rect class="a" x="810" width="10" height="10"/><rect class="a" x="820" width="10" height="10"/><rect class="a" x="780" width="10" height="10"/><rect class="a" x="760" width="10" height="10"/><rect class="a" x="770" width="10" height="10"/><rect class="a" x="790" width="10" height="10"/><rect class="a" x="830" width="10" height="10"/><rect class="a" x="860" width="10" height="10"/><rect class="a" x="870" width="10" height="10"/><rect class="a" x="880" width="10" height="10"/><rect class="a" x="890" width="10" height="10"/><rect class="a" x="900" width="10" height="10"/><rect class="a" x="1210" width="10" height="10"/><rect class="a" x="1220" width="10" height="10"/><rect class="a" x="1170" width="10" height="10"/><rect class="a" x="1180" width="10" height="10"/><rect class="a" x="1190" width="10" height="10"/><rect class="a" x="910" width="10" height="10"/><rect class="a" x="920" width="10" height="10"/><rect class="a" x="930" width="10" height="10"/><rect class="a" x="1150" width="10" height="10"/><rect class="a" x="940" width="10" height="10"/><rect class="a" x="950" width="10" height="10"/><rect class="a" x="960" width="10" height="10"/><rect class="a" x="970" width="10" height="10"/><rect class="a" x="980" width="10" height="10"/><rect class="a" x="990" width="10" height="10"/><rect class="a" x="1000" width="10" height="10"/><rect class="a" x="1010" width="10" height="10"/><rect class="a" x="1020" width="10" height="10"/><rect class="a" x="1030" width="10" height="10"/><rect class="a" x="1040" width="10" height="10"/><rect class="a" x="1050" width="10" height="10"/><rect class="a" x="1060" width="10" height="10"/><rect class="a" x="1070" width="10" height="10"/><rect class="a" x="1080" width="10" height="10"/><rect class="a" x="1090" width="10" height="10"/><rect class="a" x="1100" width="10" height="10"/><rect class="a" x="1110" width="10" height="10"/><rect class="a" x="1120" width="10" height="10"/><rect class="a" x="1130" width="10" height="10"/><rect class="a" x="1140" width="10" height="10"/><rect class="a" x="1160" width="10" height="10"/><rect class="a" x="1200" width="10" height="10"/><rect class="a" x="1230" width="10" height="10"/><rect class="a" x="1240" width="10" height="10"/><rect class="a" x="1250" width="10" height="10"/><rect class="a" x="1260" width="10" height="10"/><rect class="a" x="1270" width="10" height="10"/><rect class="a" x="1280" width="10" height="10"/><rect class="a" x="1290" width="10" height="10"/><rect class="a" x="1300" width="10" height="10"/><rect class="a" x="1310" width="10" height="10"/><rect class="a" x="1320" width="10" height="10"/><rect class="a" x="1330" width="10" height="10"/><rect class="a" x="1340" width="10" height="10"/><rect class="a" x="1350" width="10" height="10"/><rect class="a" x="1360" width="10" height="10"/><rect class="a" x="1370" width="10" height="10"/><rect class="a" x="1380" width="10" height="10"/><rect class="a" x="1390" width="10" height="10"/><rect class="a" x="1400" width="10" height="10"/><rect class="a" x="1410" width="10" height="10"/><rect class="a" x="1420" width="10" height="10"/><rect class="a" x="1430" width="10" height="10"/><rect class="a" x="1450" y="30" width="10" height="10"/><rect class="a" x="1440" y="40" width="10" height="10"/><rect class="a" x="1440" y="10" width="10" height="10"/><rect class="a" x="1450" y="20" width="10" height="10"/><rect class="a" x="1430" y="49.9" width="10" height="10"/><rect class="a" x="1420" y="49.9" width="10" height="10"/><rect class="a" x="1410" y="49.9" width="10" height="10"/><rect class="a" x="1400" y="49.9" width="10" height="10"/><rect class="a" x="1390" y="49.9" width="10" height="10"/><rect class="a" x="1080" y="49.9" width="10" height="10"/><rect class="a" x="1070" y="49.9" width="10" height="10"/><rect class="a" x="1120" y="49.9" width="10" height="10"/><rect class="a" x="1110" y="49.9" width="10" height="10"/><rect class="a" x="1100" y="49.9" width="10" height="10"/><rect class="a" x="1380" y="49.9" width="10" height="10"/><rect class="a" x="1370" y="49.9" width="10" height="10"/><rect class="a" x="1360" y="49.9" width="10" height="10"/><rect class="a" x="1140" y="49.9" width="10" height="10"/><rect class="a" x="1350" y="49.9" width="10" height="10"/><rect class="a" x="1340" y="49.9" width="10" height="10"/><rect class="a" x="1330" y="49.9" width="10" height="10"/><rect class="a" x="1320" y="49.9" width="10" height="10"/><rect class="a" x="1310" y="49.9" width="10" height="10"/><rect class="a" x="1300" y="49.9" width="10" height="10"/><rect class="a" x="1290" y="49.9" width="10" height="10"/><rect class="a" x="1280" y="49.9" width="10" height="10"/><rect class="a" x="1270" y="49.9" width="10" height="10"/><rect class="a" x="1260" y="49.9" width="10" height="10"/><rect class="a" x="1250" y="49.9" width="10" height="10"/><rect class="a" x="1240" y="49.9" width="10" height="10"/><rect class="a" x="1230" y="49.9" width="10" height="10"/><rect class="a" x="1220" y="49.9" width="10" height="10"/><rect class="a" x="1210" y="49.9" width="10" height="10"/><rect class="a" x="1200" y="49.9" width="10" height="10"/><rect class="a" x="1190" y="49.9" width="10" height="10"/><rect class="a" x="1180" y="49.9" width="10" height="10"/><rect class="a" x="1170" y="49.9" width="10" height="10"/><rect class="a" x="1160" y="49.9" width="10" height="10"/><rect class="a" x="1150" y="49.9" width="10" height="10"/><rect class="a" x="1130" y="49.9" width="10" height="10"/><rect class="a" x="1090" y="49.9" width="10" height="10"/><rect class="a" x="1060" y="49.9" width="10" height="10"/><rect class="a" x="1050" y="49.9" width="10" height="10"/><rect class="a" x="1040" y="49.9" width="10" height="10"/><rect class="a" x="1030" y="49.9" width="10" height="10"/><rect class="a" x="1020" y="49.9" width="10" height="10"/><rect class="a" x="710" y="49.9" width="10" height="10"/><rect class="a" x="700" y="49.9" width="10" height="10"/><rect class="a" x="750" y="49.9" width="10" height="10"/><rect class="a" x="740" y="49.9" width="10" height="10"/><rect class="a" x="730" y="49.9" width="10" height="10"/><rect class="a" x="1010" y="49.9" width="10" height="10"/><rect class="a" x="1000" y="49.9" width="10" height="10"/><rect class="a" x="990" y="49.9" width="10" height="10"/><rect class="a" x="770" y="49.9" width="10" height="10"/><rect class="a" x="980" y="49.9" width="10" height="10"/><rect class="a" x="970" y="49.9" width="10" height="10"/><rect class="a" x="960" y="49.9" width="10" height="10"/><rect class="a" x="950" y="49.9" width="10" height="10"/><rect class="a" x="940" y="49.9" width="10" height="10"/><rect class="a" x="930" y="49.9" width="10" height="10"/><rect class="a" x="920" y="49.9" width="10" height="10"/><rect class="a" x="910" y="49.9" width="10" height="10"/><rect class="a" x="900" y="49.9" width="10" height="10"/><rect class="a" x="890" y="49.9" width="10" height="10"/><rect class="a" x="880" y="49.9" width="10" height="10"/><rect class="a" x="870" y="49.9" width="10" height="10"/><rect class="a" x="860" y="49.9" width="10" height="10"/><rect class="a" x="850" y="49.9" width="10" height="10"/><rect class="a" x="840" y="49.9" width="10" height="10"/><rect class="a" x="830" y="49.9" width="10" height="10"/><rect class="a" x="820" y="49.9" width="10" height="10"/><rect class="a" x="810" y="49.9" width="10" height="10"/><rect class="a" x="800" y="49.9" width="10" height="10"/><rect class="a" x="790" y="49.9" width="10" height="10"/><rect class="a" x="780" y="49.9" width="10" height="10"/><rect class="a" x="760" y="49.9" width="10" height="10"/><rect class="a" x="720" y="49.9" width="10" height="10"/><rect class="a" x="610" y="49.9" width="10" height="10"/><rect class="a" x="600" y="49.9" width="10" height="10"/><rect class="a" x="650" y="49.9" width="10" height="10"/><rect class="a" x="640" y="49.9" width="10" height="10"/><rect class="a" x="630" y="49.9" width="10" height="10"/><rect class="a" x="670" y="49.9" width="10" height="10"/><rect class="a" x="690" y="49.9" width="10" height="10"/><rect class="a" x="680" y="49.9" width="10" height="10"/><rect class="a" x="660" y="49.9" width="10" height="10"/><rect class="a" x="620" y="49.9" width="10" height="10"/><rect class="a" x="590" y="49.9" width="10" height="10"/><rect class="a" x="580" y="49.9" width="10" height="10"/><rect class="a" x="570" y="49.9" width="10" height="10"/><rect class="a" x="560" y="49.9" width="10" height="10"/><rect class="a" x="550" y="49.9" width="10" height="10"/><rect class="a" x="240" y="49.9" width="10" height="10"/><rect class="a" x="230" y="49.9" width="10" height="10"/><rect class="a" x="280" y="49.9" width="10" height="10"/><rect class="a" x="270" y="49.9" width="10" height="10"/><rect class="a" x="260" y="49.9" width="10" height="10"/><rect class="a" x="540" y="49.9" width="10" height="10"/><rect class="a" x="530" y="49.9" width="10" height="10"/><rect class="a" x="520" y="49.9" width="10" height="10"/><rect class="a" x="300" y="49.9" width="10" height="10"/><rect class="a" x="510" y="49.9" width="10" height="10"/><rect class="a" x="500" y="49.9" width="10" height="10"/><rect class="a" x="490" y="49.9" width="10" height="10"/><rect class="a" x="480" y="49.9" width="10" height="10"/><rect class="a" x="470" y="49.9" width="10" height="10"/><rect class="a" x="460" y="49.9" width="10" height="10"/><rect class="a" x="450" y="49.9" width="10" height="10"/><rect class="a" x="440" y="49.9" width="10" height="10"/><rect class="a" x="430" y="49.9" width="10" height="10"/><rect class="a" x="420" y="49.9" width="10" height="10"/><rect class="a" x="410" y="49.9" width="10" height="10"/><rect class="a" x="400" y="49.9" width="10" height="10"/><rect class="a" x="390" y="49.9" width="10" height="10"/><rect class="a" x="380" y="49.9" width="10" height="10"/><rect class="a" x="370" y="49.9" width="10" height="10"/><rect class="a" x="360" y="49.9" width="10" height="10"/><rect class="a" x="350" y="49.9" width="10" height="10"/><rect class="a" x="340" y="49.9" width="10" height="10"/><rect class="a" x="330" y="49.9" width="10" height="10"/><rect class="a" x="320" y="49.9" width="10" height="10"/><rect class="a" x="310" y="49.9" width="10" height="10"/><rect class="a" x="290" y="49.9" width="10" height="10"/><rect class="a" x="250" y="49.9" width="10" height="10"/><rect class="a" x="220" y="49.9" width="10" height="10"/><rect class="a" x="210" y="49.9" width="10" height="10"/><rect class="a" x="200" y="49.9" width="10" height="10"/><rect class="a" x="190" y="49.9" width="10" height="10"/><rect class="a" x="180" y="49.9" width="10" height="10"/><rect class="a" x="170" y="49.9" width="10" height="10"/><rect class="a" x="160" y="49.9" width="10" height="10"/><rect class="a" x="150" y="49.9" width="10" height="10"/><rect class="a" x="140" y="49.9" width="10" height="10"/><rect class="a" x="130" y="49.9" width="10" height="10"/><rect class="a" x="120" y="49.9" width="10" height="10"/><rect class="a" x="110" y="49.9" width="10" height="10"/><rect class="a" x="100" y="49.9" width="10" height="10"/><rect class="a" x="90" y="49.9" width="10" height="10"/><rect class="a" x="80" y="49.9" width="10" height="10"/><rect class="a" x="70" y="49.9" width="10" height="10"/><rect class="a" x="60" y="49.9" width="10" height="10"/><rect class="a" x="50" y="49.9" width="10" height="10"/><rect class="a" x="40" y="49.9" width="10" height="10"/><rect class="a" x="30" y="49.9" width="10" height="10"/><rect class="a" x="20" y="49.9" width="10" height="10"/><polygon class="b" points="30 10 20 10 20 19.8 10 19.8 10 29.5 10 29.8 10 39.5 20 39.5 20 39.9 20 40 20 49.9 30 49.9 40 49.9 40 40 40 39.9 40 30 40 20 40 10 30 10"/><rect class="a" x="10" y="39.9" width="10" height="10"/><polygon class="a" points="10 29.8 10 19.8 0 19.8 0 29.8 0 39.8 10 39.8 10 29.8"/><polygon class="a" points="1430 0 1420 0 1410 0 1400 0 1390 0 1380 0 1370 0 1360 0 1350 0 1340 0 1330 0 1320 0 1310 0 1300 0 1290 0 1280 0 1270 0 1260 0 1250 0 1240 0 1230 0 1220 0 1210 0 1200 0 1190 0 1180 0 1170 0 1160 0 1150 0 1140 0 1130 0 1120 0 1110 0 1100 0 1090 0 1080 0 1070 0 1060 0 1050 0 1040 0 1030 0 1020 0 1010 0 1000 0 990 0 980 0 970 0 960 0 950 0 940 0 930 0 920 0 910 0 900 0 890 0 880 0 870 0 860 0 850 0 840 0 830 0 820 0 810 0 800 0 790 0 780 0 770 0 760 0 750 0 740 0 730 0 720 0 710 0 700 0 690 0 680 0 670 0 660 0 650 0 640 0 630 0 620 0 610 0 600 0 590 0 580 0 570 0 560 0 550 0 540 0 530 0 520 0 510 0 500 0 490 0 480 0 470 0 460 0 450 0 440 0 430 0 420 0 410 0 400 0 390 0 380 0 370 0 360 0 350 0 340 0 330 0 320 0 310 0 300 0 290 0 280 0 270 0 260 0 250 0 240 0 230 0 220 0 210 0 200 0 190 0 180 0 170 0 160 0 150 0 140 0 130 0 120 0 110 0 100 0 90 0 80 0 70 0 60 0 50 0 40 0 30 0 20 0 20 9.7 10 9.7 10 19.7 20 19.7 20 10 30 10 40 10 50 10 60 10 70 10 80 10 90 10 100 10 110 10 120 10 130 10 140 10 150 10 160 10 170 10 180 10 190 10 200 10 210 10 220 10 230 10 240 10 250 10 260 10 270 10 280 10 290 10 300 10 310 10 320 10 330 10 340 10 350 10 360 10 370 10 380 10 390 10 400 10 410 10 420 10 430 10 440 10 450 10 460 10 470 10 480 10 490 10 500 10 510 10 520 10 530 10 540 10 550 10 560 10 570 10 580 10 590 10 600 10 610 10 620 10 630 10 640 10 650 10 660 10 670 10 680 10 690 10 700 10 710 10 720 10 730 10 740 10 750 10 760 10 770 10 780 10 790 10 800 10 810 10 820 10 830 10 840 10 850 10 860 10 870 10 880 10 890 10 900 10 910 10 920 10 930 10 940 10 950 10 960 10 970 10 980 10 990 10 1000 10 1010 10 1020 10 1030 10 1040 10 1050 10 1060 10 1070 10 1080 10 1090 10 1100 10 1110 10 1120 10 1130 10 1140 10 1150 10 1160 10 1170 10 1180 10 1190 10 1200 10 1210 10 1220 10 1230 10 1240 10 1250 10 1260 10 1270 10 1280 10 1290 10 1300 10 1310 10 1320 10 1330 10 1340 10 1350 10 1360 10 1370 10 1380 10 1390 10 1400 10 1410 10 1420 10 1430 10 1440 10 1440 0 1430 0"/><polygon class="a" points="1440 49.9 1430 49.9 1420 49.9 1410 49.9 1400 49.9 1390 49.9 1380 49.9 1370 49.9 1360 49.9 1350 49.9 1340 49.9 1330 49.9 1320 49.9 1310 49.9 1300 49.9 1290 49.9 1280 49.9 1270 49.9 1260 49.9 1250 49.9 1240 49.9 1230 49.9 1220 49.9 1210 49.9 1200 49.9 1190 49.9 1180 49.9 1170 49.9 1160 49.9 1150 49.9 1140 49.9 1130 49.9 1120 49.9 1110 49.9 1100 49.9 1090 49.9 1080 49.9 1070 49.9 1060 49.9 1050 49.9 1040 49.9 1030 49.9 1020 49.9 1010 49.9 1000 49.9 990 49.9 980 49.9 970 49.9 960 49.9 950 49.9 940 49.9 930 49.9 920 49.9 910 49.9 900 49.9 890 49.9 880 49.9 870 49.9 860 49.9 850 49.9 840 49.9 830 49.9 820 49.9 810 49.9 800 49.9 790 49.9 780 49.9 770 49.9 760 49.9 750 49.9 740 49.9 730 49.9 720 49.9 710 49.9 700 49.9 690 49.9 680 49.9 670 49.9 660 49.9 650 49.9 640 49.9 630 49.9 620 49.9 610 49.9 600 49.9 590 49.9 580 49.9 570 49.9 560 49.9 550 49.9 540 49.9 530 49.9 520 49.9 510 49.9 500 49.9 490 49.9 480 49.9 470 49.9 460 49.9 450 49.9 440 49.9 430 49.9 420 49.9 410 49.9 400 49.9 390 49.9 380 49.9 370 49.9 360 49.9 350 49.9 340 49.9 330 49.9 320 49.9 310 49.9 300 49.9 290 49.9 280 49.9 270 49.9 260 49.9 250 49.9 240 49.9 230 49.9 220 49.9 210 49.9 200 49.9 190 49.9 180 49.9 170 49.9 160 49.9 150 49.9 140 49.9 130 49.9 120 49.9 110 49.9 100 49.9 90 49.9 80 49.9 70 49.9 60 49.9 50 49.9 40 49.9 30 49.9 20 49.9 20 59.9 30 59.9 40 59.9 50 59.9 60 59.9 70 59.9 80 59.9 90 59.9 100 59.9 110 59.9 120 59.9 130 59.9 140 59.9 150 59.9 160 59.9 170 59.9 180 59.9 190 59.9 200 59.9 210 59.9 220 59.9 230 59.9 240 59.9 250 59.9 260 59.9 270 59.9 280 59.9 290 59.9 300 59.9 310 59.9 320 59.9 330 59.9 340 59.9 350 59.9 360 59.9 370 59.9 380 59.9 390 59.9 400 59.9 410 59.9 420 59.9 430 59.9 440 59.9 450 59.9 460 59.9 470 59.9 480 59.9 490 59.9 500 59.9 510 59.9 520 59.9 530 59.9 540 59.9 550 59.9 560 59.9 570 59.9 580 59.9 590 59.9 600 59.9 610 59.9 620 59.9 630 59.9 640 59.9 650 59.9 660 59.9 670 59.9 680 59.9 690 59.9 700 59.9 710 59.9 720 59.9 730 59.9 740 59.9 750 59.9 760 59.9 770 59.9 780 59.9 790 59.9 800 59.9 810 59.9 820 59.9 830 59.9 840 59.9 850 59.9 860 59.9 870 59.9 880 59.9 890 59.9 900 59.9 910 59.9 920 59.9 930 59.9 940 59.9 950 59.9 960 59.9 970 59.9 980 59.9 990 59.9 1000 59.9 1010 59.9 1020 59.9 1030 59.9 1040 59.9 1050 59.9 1060 59.9 1070 59.9 1080 59.9 1090 59.9 1100 59.9 1110 59.9 1120 59.9 1130 59.9 1140 59.9 1150 59.9 1160 59.9 1170 59.9 1180 59.9 1190 59.9 1200 59.9 1210 59.9 1220 59.9 1230 59.9 1240 59.9 1250 59.9 1260 59.9 1270 59.9 1280 59.9 1290 59.9 1300 59.9 1310 59.9 1320 59.9 1330 59.9 1340 59.9 1350 59.9 1360 59.9 1370 59.9 1380 59.9 1390 59.9 1400 59.9 1410 59.9 1420 59.9 1430 59.9 1440 59.9 1440 50 1450 50 1450 40 1440 40 1440 49.9"/><rect class="a" x="1440" y="10" width="10" height="10"/><polygon class="a" points="1450 20 1450 30 1450 40 1460 40 1460 30 1460 20 1450 20"/></svg>