<svg xmlns="http://www.w3.org/2000/svg" viewBox="0 0 48 48"><defs><style>.a{fill:#ffde17;}.b{fill:#231f20;}.c{fill:#f26522;}.d{fill:#f1f2f2;}.e{fill:#e6e7e8;}</style></defs><path class="a" d="M33.6,14.4V12H32.4V9.6H31.2V8.4h1.2V6H31.2V4.8H30V3.6H21.6V4.8H20.4V7.2H19.2V8.4h1.2V9.6H19.2v3.6H18v1.2H16.8V18H15.6v6h1.2v1.2H18v6H16.8v1.2H15.6v1.2H14.4v1.2H13.2V36H12v1.2H10.8v1.2H9.6v2.4H8.4V42H7.2v1.2H6v1.2H4.8v1.2H3.6v1.2H2.4V48H34.8V44.4H33.6V40.8H32.4V39.6H31.2V38.4H30v-6h1.2V27.6h1.2V25.2h1.2V22.8h1.2V14.4Zm-12-1.2V9.6h1.2V8.4H24V9.6h4.8V8.4H30v2.4h1.2v3.6h1.2V18H31.2v1.2H30v1.2H21.6V19.2H20.4V18H19.2V15.6h1.2V13.2Z"/><rect class="a" x="21.6" y="18" width="1.2" height="1.2"/><rect class="a" x="22.8" y="18" width="1.2" height="1.2"/><rect class="a" x="24" y="18" width="1.2" height="1.2"/><rect class="a" x="25.2" y="18" width="1.2" height="1.2"/><rect class="a" x="26.4" y="18" width="1.2" height="1.2"/><rect class="a" x="27.6" y="18" width="1.2" height="1.2"/><rect class="a" x="28.8" y="18" width="1.2" height="1.2"/><rect class="a" x="21.6" y="16.8" width="1.2" height="1.2"/><rect class="a" x="22.8" y="16.8" width="1.2" height="1.2"/><rect class="a" x="24" y="16.8" width="1.2" height="1.2"/><rect class="a" x="25.2" y="16.8" width="1.2" height="1.2"/><rect class="a" x="26.4" y="16.8" width="1.2" height="1.2"/><rect class="a" x="27.6" y="16.8" width="1.2" height="1.2"/><rect class="a" x="28.8" y="16.8" width="1.2" height="1.2"/><rect class="a" x="30" y="16.8" width="1.2" height="1.2"/><rect class="a" x="20.4" y="15.6" width="1.2" height="1.2"/><rect class="a" x="24" y="15.6" width="1.2" height="1.2"/><rect class="a" x="25.2" y="15.6" width="1.2" height="1.2"/><rect class="a" x="26.4" y="15.6" width="1.2" height="1.2"/><rect class="a" x="21.6" y="14.4" width="1.2" height="1.2"/><rect class="a" x="22.8" y="14.4" width="1.2" height="1.2"/><rect class="a" x="27.6" y="14.4" width="1.2" height="1.2"/><rect class="a" x="28.8" y="14.4" width="1.2" height="1.2"/><rect class="a" x="30" y="14.4" width="1.2" height="1.2"/><rect class="a" x="21.6" y="13.2" width="1.2" height="1.2"/><rect class="a" x="22.8" y="13.2" width="1.2" height="1.2"/><rect class="a" x="24" y="13.2" width="1.2" height="1.2"/><rect class="a" x="25.2" y="13.2" width="1.2" height="1.2"/><rect class="a" x="26.4" y="13.2" width="1.2" height="1.2"/><rect class="a" x="27.6" y="13.2" width="1.2" height="1.2"/><rect class="a" x="28.8" y="13.2" width="1.2" height="1.2"/><rect class="a" x="22.8" y="12" width="1.2" height="1.2"/><rect class="a" x="24" y="12" width="1.2" height="1.2"/><rect class="a" x="25.2" y="12" width="1.2" height="1.2"/><rect class="a" x="26.4" y="12" width="1.2" height="1.2"/><rect class="a" x="27.6" y="12" width="1.2" height="1.2"/><rect class="a" x="28.8" y="12" width="1.2" height="1.2"/><rect class="a" x="22.8" y="10.8" width="1.2" height="1.2"/><rect class="a" x="24" y="10.8" width="1.2" height="1.2"/><rect class="a" x="25.2" y="10.8" width="1.2" height="1.2"/><rect class="a" x="26.4" y="10.8" width="1.2" height="1.2"/><rect class="a" x="27.6" y="10.8" width="1.2" height="1.2"/><rect class="a" x="28.8" y="10.8" width="1.2" height="1.2"/><rect class="a" x="22.8" y="9.6" width="1.2" height="1.2"/><rect class="a" x="21.6" y="19.2" width="1.2" height="1.2"/><rect class="a" x="22.8" y="19.2" width="1.2" height="1.2"/><rect class="a" x="24" y="19.2" width="1.2" height="1.2"/><rect class="a" x="25.2" y="19.2" width="1.2" height="1.2"/><rect class="a" x="26.4" y="19.2" width="1.2" height="1.2"/><rect class="a" x="27.6" y="19.2" width="1.2" height="1.2"/><rect class="a" x="28.8" y="19.2" width="1.2" height="1.2"/><rect class="a" x="20.4" y="18" width="1.2" height="1.2"/><rect class="a" x="30" y="18" width="1.2" height="1.2"/><rect class="a" x="19.2" y="16.8" width="1.2" height="1.2"/><rect class="a" x="20.4" y="16.8" width="1.2" height="1.2"/><rect class="a" x="31.2" y="16.8" width="1.2" height="1.2"/><rect class="a" x="19.2" y="15.6" width="1.2" height="1.2"/><rect class="a" x="31.2" y="15.6" width="1.2" height="1.2"/><rect class="a" x="20.4" y="14.4" width="1.2" height="1.2"/><rect class="a" x="31.2" y="14.4" width="1.2" height="1.2"/><rect class="a" x="20.4" y="13.2" width="1.2" height="1.2"/><rect class="a" x="30" y="13.2" width="1.2" height="1.2"/><rect class="a" x="21.6" y="12" width="1.2" height="1.2"/><rect class="a" x="30" y="12" width="1.2" height="1.2"/><rect class="a" x="21.6" y="10.8" width="1.2" height="1.2"/><rect class="a" x="30" y="10.8" width="1.2" height="1.2"/><rect class="a" x="21.6" y="9.6" width="1.2" height="1.2"/><rect class="a" x="24" y="9.6" width="1.2" height="1.2"/><rect class="a" x="25.2" y="9.6" width="1.2" height="1.2"/><rect class="a" x="26.4" y="9.6" width="1.2" height="1.2"/><rect class="a" x="27.6" y="9.6" width="1.2" height="1.2"/><rect class="a" x="28.8" y="9.6" width="1.2" height="1.2"/><rect class="a" x="22.8" y="8.4" width="1.2" height="1.2"/><rect class="a" x="28.8" y="8.4" width="1.2" height="1.2"/><rect class="a" x="21.6" y="15.6" width="1.2" height="1.2"/><rect class="a" x="22.8" y="15.6" width="1.2" height="1.2"/><rect class="a" x="27.6" y="15.6" width="1.2" height="1.2"/><rect class="a" x="28.8" y="15.6" width="1.2" height="1.2"/><rect class="a" x="30" y="15.6" width="1.2" height="1.2"/><rect class="a" x="24" y="14.4" width="1.2" height="1.2"/><rect class="a" x="25.2" y="14.4" width="1.2" height="1.2"/><rect class="a" x="26.4" y="14.4" width="1.2" height="1.2"/><rect class="b" x="1.2" y="46.8" width="1.2" height="1.2"/><rect class="b" x="2.4" y="45.6" width="1.2" height="1.2"/><rect class="b" x="3.6" y="44.4" width="1.2" height="1.2"/><rect class="b" x="4.8" y="43.2" width="1.2" height="1.2"/><rect class="b" x="6" y="42" width="1.2" height="1.2"/><polygon class="b" points="33.6 43.2 33.6 44.4 34.8 44.4 34.8 43.2 34.8 42 34.8 40.8 33.6 40.8 33.6 42 33.6 43.2"/><rect class="b" x="7.2" y="40.8" width="1.2" height="1.2"/><rect class="b" x="32.4" y="39.6" width="1.2" height="1.2"/><polygon class="b" points="8.4 39.6 8.4 40.8 9.6 40.8 9.6 39.6 9.6 38.4 8.4 38.4 8.4 39.6"/><rect class="b" x="31.2" y="38.4" width="1.2" height="1.2"/><rect class="b" x="9.6" y="37.2" width="1.2" height="1.2"/><rect class="b" x="10.8" y="36" width="1.2" height="1.2"/><rect class="b" x="12" y="34.8" width="1.2" height="1.2"/><rect class="b" x="13.2" y="33.6" width="1.2" height="1.2"/><rect class="b" x="14.4" y="32.4" width="1.2" height="1.2"/><polygon class="b" points="30 33.6 30 34.8 30 36 30 37.2 30 38.4 31.2 38.4 31.2 37.2 31.2 36 31.2 34.8 31.2 33.6 31.2 32.4 30 32.4 30 33.6"/><rect class="b" x="15.6" y="31.2" width="1.2" height="1.2"/><polygon class="b" points="31.2 28.8 31.2 30 31.2 31.2 31.2 32.4 32.4 32.4 32.4 31.2 32.4 30 32.4 28.8 32.4 27.6 31.2 27.6 31.2 28.8"/><polygon class="b" points="16.8 27.6 16.8 28.8 16.8 30 16.8 31.2 18 31.2 18 30 18 28.8 18 27.6 18 26.4 18 25.2 16.8 25.2 16.8 26.4 16.8 27.6"/><polygon class="b" points="32.4 26.4 32.4 27.6 33.6 27.6 33.6 26.4 33.6 25.2 32.4 25.2 32.4 26.4"/><rect class="b" x="15.6" y="24" width="1.2" height="1.2"/><polygon class="b" points="33.6 24 33.6 25.2 34.8 25.2 34.8 24 34.8 22.8 33.6 22.8 33.6 24"/><polygon class="b" points="14.4 19.2 14.4 20.4 14.4 21.6 14.4 22.8 14.4 24 15.6 24 15.6 22.8 15.6 21.6 15.6 20.4 15.6 19.2 15.6 18 14.4 18 14.4 19.2"/><polygon class="b" points="15.6 15.6 15.6 16.8 15.6 18 16.8 18 16.8 16.8 16.8 15.6 16.8 14.4 15.6 14.4 15.6 15.6"/><polygon class="b" points="34.8 14.4 34.8 15.6 34.8 16.8 34.8 18 34.8 19.2 34.8 20.4 34.8 21.6 34.8 22.8 36 22.8 36 21.6 36 20.4 36 19.2 36 18 36 16.8 36 15.6 36 14.4 34.8 14.4"/><rect class="b" x="16.8" y="13.2" width="1.2" height="1.2"/><polygon class="b" points="34.8 12 33.6 12 33.6 13.2 33.6 14.4 34.8 14.4 34.8 13.2 34.8 12"/><polygon class="b" points="33.6 9.6 33.6 8.4 33.6 7.2 33.6 6 32.4 6 32.4 7.2 32.4 8.4 32.4 9.6 32.4 10.8 32.4 12 33.6 12 33.6 10.8 33.6 9.6"/><polygon class="b" points="18 8.4 18 9.6 18 10.8 18 12 18 13.2 19.2 13.2 19.2 12 19.2 10.8 19.2 9.6 19.2 8.4 19.2 7.2 18 7.2 18 8.4"/><polygon class="b" points="19.2 6 19.2 7.2 20.4 7.2 20.4 6 20.4 4.8 19.2 4.8 19.2 6"/><rect class="b" x="31.2" y="4.8" width="1.2" height="1.2"/><rect class="b" x="20.4" y="3.6" width="1.2" height="1.2"/><rect class="b" x="30" y="3.6" width="1.2" height="1.2"/><polygon class="b" points="34.8 46.8 34.8 48 36 48 36 46.8 36 45.6 36 44.4 34.8 44.4 34.8 45.6 34.8 46.8"/><polygon class="b" points="28.8 2.4 27.6 2.4 26.4 2.4 25.2 2.4 24 2.4 22.8 2.4 21.6 2.4 21.6 3.6 22.8 3.6 24 3.6 25.2 3.6 26.4 3.6 27.6 3.6 28.8 3.6 30 3.6 30 2.4 28.8 2.4"/><rect class="c" x="20.4" y="15.6" width="1.2" height="1.2"/><polygon class="c" points="26.4 15.6 25.2 15.6 24 15.6 24 16.8 22.8 16.8 21.6 16.8 21.6 18 21.6 19.2 22.8 19.2 24 19.2 25.2 19.2 26.4 19.2 27.6 19.2 28.8 19.2 30 19.2 30 18 31.2 18 31.2 16.8 30 16.8 28.8 16.8 27.6 16.8 27.6 15.6 26.4 15.6"/><polygon class="c" points="24 15.6 24 14.4 25.2 14.4 26.4 14.4 27.6 14.4 27.6 15.6 28.8 15.6 30 15.6 31.2 15.6 31.2 14.4 30 14.4 30 13.2 30 12 30 10.8 28.8 10.8 27.6 10.8 26.4 10.8 25.2 10.8 24 10.8 24 9.6 22.8 9.6 22.8 10.8 22.8 12 22.8 13.2 21.6 13.2 21.6 14.4 21.6 15.6 22.8 15.6 24 15.6"/><polygon class="b" points="27.6 19.2 26.4 19.2 25.2 19.2 24 19.2 22.8 19.2 21.6 19.2 21.6 20.4 22.8 20.4 24 20.4 25.2 20.4 26.4 20.4 27.6 20.4 28.8 20.4 30 20.4 30 19.2 28.8 19.2 27.6 19.2"/><rect class="b" x="30" y="18" width="1.2" height="1.2"/><polygon class="b" points="21.6 16.8 20.4 16.8 20.4 15.6 19.2 15.6 19.2 16.8 19.2 18 20.4 18 20.4 19.2 21.6 19.2 21.6 18 21.6 16.8"/><polygon class="b" points="21.6 14.4 21.6 13.2 20.4 13.2 20.4 14.4 20.4 15.6 21.6 15.6 21.6 14.4"/><polygon class="b" points="31.2 14.4 31.2 15.6 30 15.6 28.8 15.6 27.6 15.6 27.6 16.8 28.8 16.8 30 16.8 31.2 16.8 31.2 18 32.4 18 32.4 16.8 32.4 15.6 32.4 14.4 31.2 14.4"/><polygon class="b" points="22.8 12 22.8 10.8 22.8 9.6 21.6 9.6 21.6 10.8 21.6 12 21.6 13.2 22.8 13.2 22.8 12"/><polygon class="b" points="30 13.2 30 14.4 31.2 14.4 31.2 13.2 31.2 12 31.2 10.8 30 10.8 30 12 30 13.2"/><polygon class="b" points="25.2 10.8 26.4 10.8 27.6 10.8 28.8 10.8 30 10.8 30 9.6 30 8.4 28.8 8.4 28.8 9.6 27.6 9.6 26.4 9.6 25.2 9.6 24 9.6 24 10.8 25.2 10.8"/><rect class="b" x="22.8" y="8.4" width="1.2" height="1.2"/><polygon class="b" points="21.6 15.6 21.6 16.8 22.8 16.8 24 16.8 24 15.6 22.8 15.6 21.6 15.6"/><polygon class="b" points="26.4 14.4 25.2 14.4 24 14.4 24 15.6 25.2 15.6 26.4 15.6 27.6 15.6 27.6 14.4 26.4 14.4"/><rect class="d" x="19.2" y="8.4" width="1.2" height="1.2"/><rect class="e" x="30" y="8.4" width="1.2" height="1.2"/><rect class="d" x="18" y="7.2" width="1.2" height="1.2"/><rect class="d" x="28.8" y="7.2" width="1.2" height="1.2"/><rect class="b" x="18" y="8.4" width="1.2" height="1.2"/><rect class="b" x="16.8" y="7.2" width="1.2" height="1.2"/><polygon class="b" points="33.6 7.2 32.4 7.2 31.2 7.2 30 7.2 30 8.4 31.2 8.4 31.2 9.6 30 9.6 30 8.4 28.8 8.4 28.8 7.2 27.6 7.2 26.4 7.2 25.2 7.2 24 7.2 22.8 7.2 21.6 7.2 20.4 7.2 19.2 7.2 19.2 8.4 20.4 8.4 20.4 9.6 19.2 9.6 19.2 10.8 20.4 10.8 21.6 10.8 22.8 10.8 22.8 9.6 24 9.6 24 8.4 25.2 8.4 26.4 8.4 27.6 8.4 27.6 9.6 28.8 9.6 28.8 10.8 30 10.8 31.2 10.8 32.4 10.8 32.4 9.6 33.6 9.6 33.6 8.4 34.8 8.4 34.8 7.2 33.6 7.2"/></svg>